<?xml version="1.0" encoding="iso-8859-1"?>
<!-- Generator: Adobe Illustrator 19.0.0, SVG Export Plug-In . SVG Version: 6.00 Build 0)  -->
<svg xmlns="http://www.w3.org/2000/svg" xmlns:xlink="http://www.w3.org/1999/xlink" version="1.1" id="Layer_1" x="0px" y="0px" viewBox="0 0 512 512" style="enable-background:new 0 0 512 512;" xml:space="preserve">
<circle style="fill:#F44321;" cx="256.001" cy="256" r="247.916"/>
<path style="fill:#D32D20;" d="M395.67,429.353c-137.995,0-249.864-111.867-249.864-249.864c0-64.259,24.266-122.846,64.124-167.116  C95.028,33.971,8.085,134.824,8.085,256c0,136.92,110.996,247.916,247.916,247.916c71.099,0,135.199-29.939,180.405-77.887  C423.148,428.204,409.543,429.353,395.67,429.353z"/>
<path style="fill:#231F20;" d="M439.599,434.375c0.1-0.103,0.202-0.206,0.302-0.309c1.356-1.399,2.693-2.811,4.012-4.235  c0.169-0.183,0.341-0.364,0.509-0.548c1.235-1.341,2.453-2.694,3.656-4.055c0.245-0.277,0.49-0.552,0.734-0.829  c1.11-1.267,2.203-2.545,3.285-3.83c0.324-0.385,0.651-0.769,0.972-1.154c0.982-1.18,1.949-2.369,2.907-3.565  c0.403-0.502,0.81-1.004,1.208-1.508c0.855-1.081,1.694-2.171,2.53-3.264c0.484-0.632,0.969-1.263,1.447-1.898  c0.729-0.972,1.444-1.952,2.159-2.932c0.559-0.767,1.12-1.535,1.67-2.308c0.609-0.856,1.205-1.719,1.803-2.582  c0.631-0.91,1.261-1.818,1.879-2.736c0.495-0.734,0.979-1.474,1.465-2.212c0.695-1.055,1.388-2.111,2.067-3.174  c0.388-0.609,0.767-1.222,1.15-1.835c0.752-1.201,1.499-2.404,2.231-3.616c0.291-0.483,0.574-0.971,0.863-1.456  c0.8-1.346,1.593-2.697,2.367-4.056c0.204-0.358,0.401-0.719,0.604-1.078c0.84-1.492,1.668-2.988,2.476-4.495  c0.125-0.233,0.246-0.468,0.37-0.701c0.87-1.634,1.725-3.275,2.558-4.927c0.056-0.111,0.109-0.222,0.165-0.333  c13.006-25.879,21.506-53.868,25.079-83.022c0.009-0.071,0.015-0.142,0.024-0.212c0.245-2.01,0.469-4.025,0.667-6.046  c0.028-0.283,0.046-0.568,0.073-0.852c0.171-1.814,0.333-3.629,0.467-5.451c0.04-0.548,0.065-1.098,0.101-1.646  c0.105-1.563,0.21-3.126,0.287-4.695c0.047-0.971,0.071-1.947,0.108-2.92c0.043-1.156,0.098-2.309,0.126-3.468  c0.053-2.139,0.079-4.283,0.079-6.43c0-2.147-0.027-4.291-0.079-6.431c-0.028-1.15-0.083-2.295-0.126-3.442  c-0.037-0.982-0.06-1.966-0.109-2.946c-0.077-1.554-0.18-3.102-0.283-4.651c-0.038-0.563-0.064-1.129-0.105-1.691  c-0.134-1.817-0.294-3.629-0.466-5.439c-0.027-0.287-0.046-0.576-0.074-0.862c-0.197-2.015-0.421-4.024-0.665-6.028  c-0.01-0.077-0.016-0.154-0.026-0.231c-3.329-27.155-10.931-53.302-22.468-77.673c-0.001-0.002-0.002-0.004-0.003-0.006  c-0.846-1.786-1.715-3.562-2.603-5.33c-0.058-0.115-0.113-0.232-0.171-0.346c-0.832-1.649-1.686-3.288-2.555-4.92  c-0.125-0.235-0.247-0.471-0.372-0.706c-0.808-1.508-1.637-3.005-2.477-4.497c-0.201-0.357-0.398-0.716-0.599-1.073  c-0.776-1.362-1.57-2.715-2.371-4.065c-0.287-0.482-0.568-0.967-0.858-1.447c-0.732-1.214-1.481-2.419-2.233-3.621  c-0.382-0.611-0.761-1.223-1.148-1.831c-0.68-1.066-1.375-2.123-2.072-3.181c-0.484-0.735-0.966-1.471-1.457-2.201  c-0.485-0.72-0.978-1.436-1.47-2.15c-0.142-0.207-0.289-0.412-0.432-0.619c-0.589-0.849-1.177-1.7-1.776-2.544  c-0.414-0.581-0.832-1.16-1.25-1.739c-0.221-0.305-0.445-0.607-0.666-0.911c-0.633-0.866-1.265-1.73-1.909-2.588  c-0.337-0.449-0.677-0.898-1.018-1.346c-0.297-0.392-0.6-0.781-0.901-1.173c-0.679-0.883-1.362-1.763-2.054-2.64  c-0.259-0.327-0.516-0.653-0.776-0.979c-0.372-0.467-0.749-0.929-1.125-1.394c-0.731-0.903-1.468-1.803-2.212-2.698  c-0.18-0.216-0.358-0.433-0.538-0.649c-0.438-0.523-0.882-1.042-1.325-1.562c-0.776-0.912-1.559-1.819-2.349-2.722  c-0.07-0.08-0.138-0.161-0.208-0.241c-0.046-0.054-0.093-0.108-0.139-0.162c-0.494-0.562-0.993-1.118-1.492-1.675  c-0.771-0.861-1.547-1.719-2.329-2.572c-0.648-0.705-1.3-1.406-1.955-2.104c-0.786-0.836-1.575-1.669-2.372-2.495  c-0.661-0.686-1.328-1.367-1.997-2.047c-0.456-0.463-0.901-0.935-1.361-1.395c-0.375-0.375-0.76-0.736-1.136-1.109  c-0.284-0.28-0.558-0.566-0.843-0.845c-0.359-0.35-0.725-0.689-1.085-1.038c-0.9-0.872-1.804-1.738-2.715-2.594  c-0.59-0.554-1.182-1.104-1.776-1.651c-0.985-0.91-1.974-1.812-2.971-2.704c-0.524-0.469-1.052-0.933-1.579-1.397  c-1.083-0.954-2.172-1.9-3.268-2.835c-0.443-0.377-0.889-0.75-1.334-1.124c-1.195-1.004-2.396-1.998-3.607-2.978  c-0.35-0.283-0.703-0.564-1.054-0.845c-1.314-1.052-2.635-2.093-3.968-3.117c-0.252-0.194-0.506-0.385-0.758-0.578  c-1.439-1.098-2.888-2.183-4.347-3.249c-0.143-0.105-0.288-0.208-0.431-0.313c-1.57-1.143-3.152-2.267-4.746-3.372  c-0.032-0.023-0.065-0.044-0.096-0.066c-35.624-24.657-76.77-39.761-120.247-43.958c-0.055-0.005-0.11-0.009-0.165-0.014  c-2.005-0.192-4.013-0.364-6.026-0.51c-0.425-0.031-0.852-0.05-1.276-0.078c-1.654-0.111-3.307-0.22-4.967-0.3  c-0.898-0.043-1.8-0.065-2.699-0.099c-1.195-0.045-2.39-0.101-3.588-0.129C260.229,0.026,258.116,0,256.001,0  c-2.115,0-4.225,0.026-6.333,0.078c-1.174,0.028-2.342,0.083-3.514,0.127c-0.921,0.034-1.844,0.056-2.764,0.101  c-1.647,0.079-3.289,0.186-4.929,0.297c-0.433,0.029-0.869,0.049-1.302,0.08c-1.997,0.144-3.988,0.315-5.976,0.504  c-0.068,0.006-0.136,0.011-0.203,0.017c-43.379,4.18-84.437,19.219-120.004,43.773c-0.079,0.054-0.158,0.108-0.237,0.163  c-1.545,1.069-3.078,2.157-4.603,3.262c-0.199,0.144-0.399,0.287-0.597,0.432c-1.401,1.023-2.793,2.062-4.177,3.115  c-0.319,0.243-0.638,0.484-0.956,0.728c-1.263,0.971-2.517,1.955-3.765,2.952c-0.429,0.342-0.857,0.684-1.284,1.029  c-1.133,0.916-2.258,1.845-3.378,2.783c-0.53,0.444-1.061,0.889-1.589,1.338c-1.011,0.86-2.015,1.73-3.014,2.607  c-0.622,0.545-1.243,1.093-1.859,1.646c-0.902,0.808-1.8,1.623-2.693,2.446c-0.695,0.639-1.387,1.282-2.076,1.929  c-0.809,0.761-1.615,1.528-2.416,2.301c-0.383,0.37-0.773,0.729-1.154,1.101c-0.373,0.363-0.733,0.737-1.103,1.103  c-0.363,0.359-0.735,0.708-1.096,1.07c-0.36,0.36-0.708,0.73-1.066,1.092c-0.791,0.801-1.577,1.605-2.356,2.414  c-0.674,0.7-1.343,1.401-2.008,2.107c-0.785,0.832-1.562,1.67-2.334,2.51c-0.653,0.712-1.303,1.426-1.948,2.145  c-0.749,0.834-1.491,1.674-2.228,2.517c-0.656,0.751-1.311,1.505-1.957,2.262c-0.555,0.649-1.107,1.3-1.655,1.954  c-0.17,0.204-0.338,0.41-0.509,0.614c-0.642,0.772-1.282,1.547-1.914,2.325c-0.485,0.597-0.968,1.194-1.447,1.796  c-0.252,0.316-0.502,0.633-0.752,0.95c-0.59,0.747-1.175,1.496-1.757,2.248c-0.406,0.527-0.812,1.054-1.214,1.583  c-0.336,0.441-0.67,0.883-1.002,1.326c-0.543,0.724-1.08,1.452-1.616,2.182c-0.322,0.439-0.642,0.878-0.961,1.319  c-0.419,0.579-0.839,1.159-1.253,1.741c-0.499,0.702-0.991,1.408-1.482,2.115c-0.238,0.342-0.475,0.683-0.711,1.026  c-0.498,0.722-0.995,1.444-1.484,2.17c-0.46,0.682-0.911,1.37-1.364,2.057c-0.154,0.234-0.309,0.468-0.463,0.703  c-0.572,0.873-1.144,1.746-1.704,2.625c-0.389,0.611-0.77,1.227-1.154,1.841c-0.059,0.095-0.119,0.189-0.178,0.283  c-0.047,0.077-0.096,0.153-0.143,0.23c-0.641,1.029-1.281,2.061-1.907,3.099c-0.292,0.484-0.576,0.971-0.863,1.457  c-0.8,1.346-1.592,2.696-2.366,4.055c-0.205,0.36-0.403,0.722-0.606,1.082c-0.838,1.489-1.665,2.983-2.472,4.486  c-0.128,0.238-0.251,0.479-0.378,0.718c-0.866,1.627-1.717,3.261-2.547,4.904c-0.063,0.123-0.122,0.247-0.183,0.37  c-0.884,1.759-1.749,3.528-2.591,5.306c-0.005,0.011-0.01,0.022-0.015,0.032c-11.53,24.363-19.129,50.503-22.457,77.653  c-0.008,0.059-0.012,0.119-0.019,0.177c-0.247,2.021-0.472,4.048-0.672,6.079c-0.028,0.287-0.047,0.576-0.074,0.862  c-0.171,1.81-0.332,3.621-0.466,5.439c-0.041,0.563-0.067,1.129-0.105,1.691c-0.103,1.549-0.208,3.097-0.283,4.651  c-0.047,0.98-0.072,1.964-0.109,2.946c-0.043,1.147-0.098,2.292-0.126,3.442c-0.052,2.139-0.079,4.282-0.079,6.43  s0.027,4.291,0.079,6.431c0.028,1.15,0.083,2.295,0.126,3.442c0.037,0.982,0.061,1.966,0.109,2.946  c0.075,1.554,0.18,3.102,0.283,4.651c0.038,0.563,0.063,1.129,0.105,1.691c0.134,1.819,0.295,3.633,0.466,5.443  c0.027,0.286,0.046,0.572,0.074,0.857c0.199,2.031,0.425,4.054,0.67,6.074c0.008,0.06,0.013,0.122,0.02,0.182  c3.327,27.15,10.927,53.289,22.459,77.656c0.005,0.011,0.01,0.022,0.015,0.032c0.842,1.779,1.707,3.546,2.591,5.306  c0.061,0.123,0.122,0.247,0.183,0.37c0.829,1.644,1.68,3.277,2.546,4.903c0.127,0.239,0.251,0.48,0.379,0.719  c0.806,1.504,1.633,2.995,2.469,4.483c0.204,0.362,0.403,0.725,0.608,1.086c0.773,1.358,1.564,2.706,2.363,4.05  c0.289,0.487,0.575,0.977,0.867,1.463c0.73,1.209,1.476,2.41,2.227,3.609c0.384,0.614,0.764,1.231,1.154,1.842  c0.677,1.062,1.369,2.114,2.063,3.167c0.488,0.741,0.973,1.483,1.469,2.219c0.618,0.916,1.247,1.825,1.878,2.734  c0.596,0.861,1.193,1.724,1.801,2.578c0.552,0.776,1.115,1.546,1.676,2.316c0.712,0.979,1.426,1.955,2.153,2.924  c0.48,0.638,0.967,1.272,1.452,1.906c0.832,1.089,1.67,2.175,2.521,3.252c0.404,0.511,0.815,1.019,1.223,1.527  c0.953,1.187,1.913,2.369,2.889,3.542c0.33,0.396,0.664,0.789,0.997,1.184c1.073,1.273,2.156,2.539,3.255,3.795  c0.255,0.292,0.514,0.581,0.772,0.872c1.19,1.346,2.394,2.684,3.615,4.009c0.184,0.201,0.372,0.4,0.557,0.599  c1.302,1.404,2.621,2.798,3.958,4.178c0.121,0.125,0.243,0.248,0.364,0.373c0.846,0.87,1.684,1.746,2.543,2.605  c0.57,0.57,1.153,1.123,1.729,1.687c0.028,0.028,0.055,0.056,0.083,0.083c0.009,0.009,0.018,0.015,0.027,0.024  C124.958,486.021,188.478,512,256.001,512c67.526,0,131.05-25.983,179.189-73.196c0.005-0.005,0.012-0.01,0.017-0.015  c0.017-0.017,0.034-0.035,0.052-0.052c0.585-0.574,1.179-1.137,1.761-1.718C437.892,436.146,438.741,435.258,439.599,434.375z   M414.197,436.097c-0.612,0.539-1.223,1.08-1.841,1.613c-0.827,0.712-1.664,1.414-2.501,2.116c-0.621,0.521-1.24,1.044-1.866,1.56  c-0.848,0.696-1.706,1.381-2.563,2.065c-0.63,0.503-1.257,1.01-1.892,1.507c-0.872,0.682-1.754,1.352-2.635,2.021  c-0.633,0.482-1.263,0.967-1.9,1.443c-0.9,0.67-1.81,1.327-2.72,1.984c-0.634,0.459-1.264,0.923-1.904,1.376  c-0.926,0.656-1.863,1.298-2.797,1.94c-0.636,0.438-1.268,0.881-1.908,1.312c-0.958,0.646-1.927,1.275-2.895,1.907  c-0.63,0.411-1.254,0.829-1.887,1.234c-0.993,0.635-1.998,1.255-3.001,1.876c-0.621,0.385-1.237,0.777-1.864,1.157  c-1.036,0.628-2.084,1.24-3.13,1.853c-0.604,0.354-1.202,0.715-1.808,1.064c-1.093,0.628-2.199,1.237-3.303,1.849  c-0.571,0.316-1.137,0.641-1.711,0.953c-1.175,0.638-2.363,1.257-3.549,1.876c-0.513,0.267-1.021,0.544-1.536,0.808  c-1.306,0.669-2.626,1.318-3.946,1.964c-0.405,0.198-0.806,0.405-1.213,0.602c-1.606,0.775-3.224,1.528-4.849,2.268  c-0.126,0.057-0.25,0.119-0.376,0.176c-3.528,1.597-7.101,3.112-10.716,4.54c-0.289,0.114-0.582,0.22-0.872,0.333  c-1.509,0.59-3.021,1.172-4.544,1.731c-0.548,0.202-1.102,0.388-1.651,0.585c-1.273,0.457-2.546,0.915-3.829,1.351  c-0.663,0.225-1.332,0.434-1.997,0.654c-1.178,0.389-2.354,0.78-3.54,1.152c-0.737,0.231-1.482,0.444-2.223,0.668  c-1.123,0.338-2.243,0.682-3.373,1.006c-0.788,0.225-1.583,0.434-2.375,0.651c-1.09,0.3-2.178,0.604-3.276,0.888  c-0.829,0.216-1.664,0.414-2.497,0.62c-1.067,0.264-2.133,0.534-3.207,0.785c-0.859,0.201-1.726,0.384-2.588,0.576  c-1.055,0.234-2.109,0.472-3.17,0.692c-0.883,0.183-1.771,0.349-2.656,0.523c-1.05,0.205-2.098,0.414-3.152,0.606  c-0.903,0.164-1.813,0.312-2.72,0.466c-1.044,0.177-2.088,0.358-3.136,0.521c-0.924,0.144-1.853,0.272-2.78,0.405  c-1.039,0.15-2.077,0.302-3.12,0.438c-0.944,0.123-1.894,0.231-2.841,0.343c-1.033,0.122-2.065,0.247-3.102,0.356  c-0.961,0.101-1.927,0.188-2.892,0.277c-1.033,0.096-2.064,0.193-3.1,0.276c-0.974,0.078-1.953,0.141-2.93,0.207  c-1.033,0.07-2.064,0.14-3.1,0.197c-0.988,0.054-1.98,0.094-2.972,0.136c-0.717,0.03-1.435,0.058-2.154,0.082V333.403  c27.011-0.387,53.6-2.709,79.067-6.861c3.784,11.667,8.482,23.024,14.102,33.903c14.522,28.106,35.092,53.199,59.792,73.109  c-0.139,0.126-0.276,0.255-0.415,0.382C415.825,434.663,415.012,435.38,414.197,436.097z M16.477,268.22  c-0.017-0.346-0.024-0.695-0.04-1.042c33.629,25.876,81.452,45.396,136.27,56.338c-13.027,38.511-36.985,73.05-69.429,98.699  c-38.752-40.255-63.61-93.971-66.763-153.355C16.504,268.646,16.488,268.434,16.477,268.22z M495.143,274.243  c-0.065,0.856-0.15,1.706-0.223,2.56c-0.099,1.148-0.191,2.297-0.306,3.44c-0.088,0.88-0.197,1.754-0.295,2.631  c-0.124,1.111-0.243,2.225-0.382,3.332c-0.112,0.886-0.243,1.766-0.364,2.648c-0.15,1.09-0.293,2.182-0.458,3.266  c-0.136,0.893-0.289,1.779-0.434,2.668c-0.175,1.068-0.343,2.137-0.531,3.2c-0.158,0.892-0.334,1.78-0.502,2.668  c-0.199,1.052-0.393,2.106-0.606,3.154c-0.18,0.888-0.377,1.771-0.567,2.656c-0.224,1.039-0.443,2.08-0.68,3.115  c-0.203,0.885-0.421,1.764-0.634,2.646c-0.247,1.025-0.492,2.052-0.751,3.072c-0.224,0.879-0.464,1.752-0.697,2.627  c-0.272,1.015-0.54,2.032-0.826,3.043c-0.245,0.868-0.502,1.73-0.757,2.593c-0.296,1.008-0.591,2.016-0.899,3.017  c-0.266,0.861-0.544,1.717-0.819,2.575c-0.319,0.994-0.637,1.988-0.968,2.975c-0.287,0.855-0.586,1.704-0.883,2.556  c-0.342,0.982-0.683,1.964-1.037,2.939c-0.306,0.844-0.624,1.684-0.94,2.523c-0.365,0.972-0.731,1.945-1.109,2.911  c-0.326,0.833-0.662,1.661-0.996,2.489c-0.389,0.963-0.778,1.925-1.179,2.881c-0.345,0.822-0.7,1.639-1.053,2.458  c-0.412,0.952-0.825,1.904-1.248,2.849c-0.363,0.811-0.735,1.617-1.107,2.423c-0.434,0.941-0.871,1.881-1.316,2.815  c-0.382,0.8-0.772,1.595-1.163,2.391c-0.457,0.929-0.915,1.858-1.384,2.781c-0.4,0.787-0.806,1.569-1.214,2.352  c-0.48,0.919-0.961,1.837-1.452,2.75c-0.417,0.775-0.841,1.547-1.267,2.317c-0.5,0.907-1.005,1.811-1.517,2.71  c-0.434,0.763-0.875,1.523-1.317,2.281c-0.523,0.895-1.049,1.787-1.582,2.674c-0.451,0.75-0.908,1.496-1.366,2.241  c-0.544,0.884-1.094,1.763-1.65,2.64c-0.466,0.735-0.937,1.466-1.41,2.196c-0.567,0.873-1.139,1.742-1.717,2.606  c-0.482,0.721-0.967,1.439-1.456,2.155c-0.589,0.86-1.181,1.715-1.781,2.566c-0.497,0.707-0.997,1.412-1.502,2.113  c-0.61,0.847-1.226,1.69-1.846,2.53c-0.511,0.691-1.024,1.38-1.542,2.065c-0.632,0.836-1.271,1.666-1.913,2.494  c-0.525,0.676-1.051,1.35-1.583,2.019c-0.653,0.822-1.314,1.639-1.977,2.453c-0.539,0.661-1.078,1.32-1.623,1.975  c-0.674,0.808-1.355,1.61-2.038,2.41c-0.552,0.646-1.105,1.29-1.663,1.929c-0.695,0.796-1.399,1.585-2.104,2.37  c-0.564,0.628-1.127,1.257-1.698,1.879c-0.717,0.781-1.441,1.556-2.169,2.329c-0.576,0.612-1.151,1.224-1.733,1.83  c-0.06,0.063-0.122,0.124-0.182,0.186c-32.416-25.627-56.358-60.126-69.394-98.596c17.161-3.391,33.731-7.615,49.448-12.682  c4.25-1.37,6.584-5.925,5.215-10.174c-1.37-4.249-5.924-6.584-10.174-5.215c-15.581,5.023-32.043,9.192-49.114,12.508  c-4.313-16.872-6.581-34.349-6.581-52.055c0-64.465,29.872-125.934,80.263-165.941c36.941,38.315,61.429,88.719,66.468,144.407  c0.022,0.243,0.044,0.486,0.065,0.729c0.001,0.018,0.003,0.038,0.004,0.056c0.137,1.57,0.254,3.145,0.36,4.723  c0.031,0.477,0.063,0.955,0.091,1.433c0.004,0.067,0.009,0.135,0.013,0.202c0.082,1.374,0.152,2.751,0.21,4.132  c0.014,0.336,0.026,0.674,0.039,1.011c-17.438,15.537-40.394,29.087-68.298,40.31c-4.142,1.665-6.149,6.375-4.484,10.517  c1.668,4.142,6.377,6.148,10.518,4.483c24.249-9.754,45.072-21.266,62.169-34.32c-0.008,0.153-0.01,0.307-0.017,0.46  c-0.04,0.8-0.101,1.594-0.149,2.392C495.302,271.809,495.235,273.03,495.143,274.243z M16.92,237.009  c4.482-56.946,28.945-108.359,66.358-147.223c50.597,40.001,80.6,101.606,80.6,166.215c0,17.691-2.265,35.153-6.57,52.013  c-58.772-11.481-108.956-33.08-140.921-61.872c0.018-0.462,0.031-0.927,0.053-1.388c0.037-0.804,0.081-1.606,0.126-2.407  c0.08-1.412,0.165-2.823,0.268-4.229C16.862,237.747,16.891,237.378,16.92,237.009z M154.746,151.556  c-14.525-28.109-35.095-53.204-59.801-73.116c40.738-36.985,94.212-60.164,152.971-62.121v300.923  c-25.673-0.38-50.731-2.571-74.58-6.388c4.424-17.894,6.71-36.35,6.71-54.855C180.047,219.704,171.299,183.588,154.746,151.556z   M268.591,16.509c1.599,0.085,3.194,0.184,4.784,0.301c0.232,0.017,0.464,0.032,0.695,0.05  c54.416,4.155,104.129,26.903,142.636,61.861c-24.55,19.867-44.996,44.858-59.452,72.834c-16.551,32.033-25.3,68.149-25.3,104.444  c0,18.515,2.289,36.98,6.717,54.883c-24.035,3.823-49.103,5.976-74.587,6.351V16.323c0.818,0.028,1.637,0.056,2.453,0.093  C267.223,16.445,267.908,16.473,268.591,16.509z M154.746,360.444c5.634-10.904,10.34-22.289,14.129-33.984  c25.29,4.171,51.855,6.556,79.041,6.951v162.27c-58.758-1.956-112.233-25.137-152.969-62.121  C119.651,413.649,140.223,388.553,154.746,360.444z"/>
<g>
</g>
<g>
</g>
<g>
</g>
<g>
</g>
<g>
</g>
<g>
</g>
<g>
</g>
<g>
</g>
<g>
</g>
<g>
</g>
<g>
</g>
<g>
</g>
<g>
</g>
<g>
</g>
<g>
</g>
</svg>
